# xmcd
#
# Track frame offsets: 
#        150
#        11172
#        23802
#        35190
#        48387
#        61812
#        76872
#        86590
#        98120
#        117260
#        130755
#        144442
#        165990
#        175640
#        188392
#        203927
#
# Disc length: 2899 seconds
#
# Revision: 2
# Processed by: cddbd v1.5.2PL0 Copyright (c) Steve Scherf et al.
# Submitted via: ExactAudioCopy v0.95b4
#
DISCID=c50b5110
DTITLE=Waylon Jennings - 16 Biggest Hits
DYEAR=2005
DGENRE=Country
TTITLE0=This Time
TTITLE1=I'm a Ramblin Man
TTITLE2=Rainy Day Woman
TTITLE3=Are You Sure Hank Done It This Way
TTITLE4=Good Hearted Woman
TTITLE5=Luckenbach, Texas ( Back to The Basics Of Love )
TTITLE6=The Wurlitzer Prize (I Don't Want to Get Over You )
TTITLE7=Mammas Don't Let Your Babies Grow Up to Be Cowboys
TTITLE8=I've Always Been Crazy
TTITLE9=Amanda
TTITLE10=Come with Me
TTITLE11=I Ain't Living Long Like This
TTITLE12=Theme From The Dukes of Hazzard (Good Ol' Boys)
TTITLE13=Just to Satisfy You
TTITLE14=Lucille (You Won't Do Your Daddy's Will)
TTITLE15=Drinkin' and Dreamin'
EXTD=
EXTT0=
EXTT1=
EXTT2=
EXTT3=
EXTT4=
EXTT5=
EXTT6=
EXTT7=
EXTT8=
EXTT9=
EXTT10=
EXTT11=
EXTT12=
EXTT13=
EXTT14=
EXTT15=
PLAYORDER=
